<svg xmlns="http://www.w3.org/2000/svg" xmlns:xlink="http://www.w3.org/1999/xlink" viewBox="0,0,256,256" width="100px" height="100px" fill-rule="nonzero"><g fill="#94d82d" fill-rule="nonzero" stroke="none" stroke-width="1" stroke-linecap="butt" stroke-linejoin="miter" stroke-miterlimit="10" stroke-dasharray="" stroke-dashoffset="0" font-family="none" font-weight="none" font-size="none" text-anchor="none" style="mix-blend-mode: normal"><path d="M0,256v-256h256v256z" id="bgRectangle"></path></g><g fill="none" fill-rule="nonzero" stroke="none" stroke-width="none" stroke-linecap="none" stroke-linejoin="none" stroke-miterlimit="10" stroke-dasharray="" stroke-dashoffset="0" font-family="none" font-weight="none" font-size="none" text-anchor="none" style="mix-blend-mode: normal"><g transform="scale(2.56,2.56)"><path d="M57.901,96.02c-14.868,0 -23.875,-5.157 -28.545,-9.035c-1.337,0.428 -2.736,0.652 -4.138,0.652c-7.518,0 -13.635,-6.117 -13.635,-13.637c0,-2.4 0.634,-4.734 1.801,-6.773c-2.63,-4.949 -3.04,-10.691 -3.316,-13.862c-3.917,-2.758 -7.838,-6.448 -7.838,-13.379c0,-9.346 7.23,-14.51 14.393,-15.609l1.585,-1.007c7.244,-10.517 17.313,-16.068 29.181,-16.068c6.39,0 11.547,1.987 15.33,5.905c2.812,2.914 4.243,6.321 4.967,9.159c3.41,0.951 5.434,3.535 7.152,5.971c0.577,-0.905 1.973,-2.55 2.789,-3.379c1.452,-1.477 4.432,-3.957 8.057,-3.957c1.622,0 3.132,0.501 4.385,1.454c0.234,0.167 0.456,0.353 0.651,0.548l5.154,5.071c4.104,4.04 4.157,10.666 0.12,14.769l-0.196,0.199c-0.713,0.724 -1.514,1.332 -2.38,1.812c1.636,2.801 2.527,6.145 2.527,9.777c0,11.33 -5.863,17.019 -9.714,19.53c-2.297,9.849 -11.763,21.859 -28.33,21.859z" fill="#000000" stroke="none" stroke-width="1" stroke-linecap="butt" stroke-linejoin="miter" opacity="0.35"></path><path d="M55.901,94.02c-14.868,0 -23.875,-5.157 -28.545,-9.035c-1.337,0.428 -2.736,0.652 -4.138,0.652c-7.518,0 -13.635,-6.117 -13.635,-13.637c0,-2.4 0.634,-4.734 1.801,-6.773c-2.63,-4.949 -3.534,-9.539 -3.811,-12.71c-3.916,-2.757 -7.343,-7.6 -7.343,-14.531c0,-9.346 7.23,-14.51 14.393,-15.609l1.585,-1.007c7.244,-10.517 17.313,-16.068 29.181,-16.068c6.39,0 11.547,1.987 15.33,5.905c2.812,2.914 4.243,6.321 4.967,9.159c3.41,0.951 6.119,2.775 7.837,5.211c0.577,-0.905 1.288,-1.791 2.104,-2.619c1.452,-1.477 4.432,-3.957 8.057,-3.957c1.622,0 3.132,0.501 4.385,1.454c0.234,0.167 0.456,0.353 0.651,0.548l5.154,5.071c4.104,4.04 4.157,10.666 0.12,14.769l-0.196,0.199c-0.713,0.724 -1.514,1.332 -2.38,1.812c1.636,2.801 2.527,6.145 2.527,9.777c0,11.33 -5.863,17.019 -9.714,19.53c-2.297,9.849 -11.763,21.859 -28.33,21.859z" fill="#f2f2f2" stroke="none" stroke-width="1" stroke-linecap="butt" stroke-linejoin="miter"></path><path d="M89.359,36.285l-0.188,0.191c-1.528,1.552 -4.025,1.573 -5.577,0.045l-5.182,-5.099l5.72,-5.813l5.182,5.099c1.553,1.527 1.573,4.024 0.045,5.577z" fill="#f9b84f" stroke="none" stroke-width="1" stroke-linecap="butt" stroke-linejoin="miter"></path><path d="M69.094,44.475c0,0 -3.058,-1.019 -6.117,0c0,0 -3.058,-3.058 -3.465,-5.888c0,0 9.582,-1.249 9.582,-6.346c0,-4.078 -4.078,-6.117 -9.175,-6.117c0,0 0.504,-14.324 -14.53,-14.324c-5.67,0 -16.288,1.523 -24.535,14.318l-4.02,2.554c0,0 -10.103,0.51 -10.103,9.312c0,8.528 7.314,10.567 7.314,10.567c0,0 -1.1,8.156 5.057,16.821l0.43,0.526c-2.064,1.251 -3.448,3.511 -3.448,6.101c0,3.941 3.195,7.136 7.136,7.136c2.075,0 3.937,-0.891 5.241,-2.305c0,0 6.992,10.461 27.381,10.461c16.311,0 22.428,-14.272 22.428,-19.369c0,0 9.175,-2.548 9.175,-15.291c0,-12.743 -14.273,-14.272 -18.351,-8.156z" fill="#ffc7a3" stroke="none" stroke-width="1" stroke-linecap="butt" stroke-linejoin="miter"></path><path d="M14.554,49.063c0,0 7.978,-17.056 32.534,-17.056c8.244,0 12.425,6.581 12.425,6.581l8.169,-3.287l1.006,-5.561l-5.67,-2.244l-3.608,-1.88l-2.484,-8.858l-8.247,-4.695h-8.238l-10.388,4.361l-6.559,6.066l-2.64,3.63l-4.02,2.554l-7.732,2.754l-2.371,7.7l2.575,6.256z" fill="#d9eeff" stroke="none" stroke-width="1" stroke-linecap="butt" stroke-linejoin="miter"></path><path d="M69.094,44.475c0,0 -3.058,-1.019 -6.117,0c0,0 -3.058,-3.058 -3.465,-5.888c0,0 9.582,-1.249 9.582,-6.346c0,-4.078 -4.078,-6.117 -9.175,-6.117c0,0 0.504,-14.324 -14.53,-14.324c-5.67,0 -16.288,1.523 -24.535,14.318l-4.02,2.554c0,0 -10.103,0.51 -10.103,9.312c0,8.528 7.314,10.567 7.314,10.567c0,0 -1.1,8.156 5.057,16.821l0.43,0.526c-2.064,1.251 -3.448,3.511 -3.448,6.101c0,3.941 3.195,7.136 7.136,7.136c2.075,0 3.937,-0.891 5.241,-2.305c0,0 7.053,10.688 27.441,10.688c16.311,0 22.367,-14.5 22.367,-19.597c0,0 9.175,-2.548 9.175,-15.291c0,-12.743 -14.272,-14.271 -18.35,-8.155z" fill="none" stroke="#40396e" stroke-width="3" stroke-linecap="round" stroke-linejoin="round"></path><path d="M79.983,41.414l3.617,-4.437" fill="none" stroke="#40396e" stroke-width="3" stroke-linecap="round" stroke-linejoin="round"></path><path d="M89.359,36.285l-0.188,0.191c-1.528,1.552 -4.025,1.573 -5.577,0.045l-5.182,-5.099l5.72,-5.813l5.182,5.099c1.553,1.527 1.573,4.024 0.045,5.577z" fill="none" stroke="#40396e" stroke-width="3" stroke-linecap="round" stroke-linejoin="round"></path><ellipse cx="36.68213" cy="78.04107" transform="rotate(-45.461)" rx="4.078" ry="1.536" fill="none" stroke="#40396e" stroke-width="3" stroke-linecap="round" stroke-linejoin="round"></ellipse><path d="M15.294,47.745c0,0 -3.177,-2.007 1.299,-6.838c6.016,-6.494 22.207,-16.311 43.836,-16.311c8.665,0.51 8.98,6.832 8.98,6.832l-2.887,5.37l-8.133,3.09c0,0 -2.039,-7.136 -16.311,-7.136c-14.272,0 -26.784,14.993 -26.784,14.993z" fill="#40396e" stroke="none" stroke-width="1" stroke-linecap="butt" stroke-linejoin="miter"></path><circle cx="42.079" cy="29.694" r="5.097" fill="#f9b84f" stroke="none" stroke-width="1" stroke-linecap="butt" stroke-linejoin="miter"></circle><ellipse cx="39.18842" cy="60.05232" transform="rotate(-18.016)" rx="2.549" ry="4.078" fill="#40396e" stroke="none" stroke-width="1" stroke-linecap="butt" stroke-linejoin="miter"></ellipse><path d="M52.783,32.242c0,0 -5.097,3.058 -3.058,8.156" fill="none" stroke="#40396e" stroke-width="3" stroke-linecap="round" stroke-linejoin="round"></path><path d="M47.087,52.728c0,0 -4.499,-2.136 -7.557,0.922" fill="none" stroke="#40396e" stroke-width="3" stroke-linecap="round" stroke-linejoin="round"></path><path d="M31.374,44.475c0,0 0,-5.097 4.078,-5.097c4.078,0 7.136,8.156 12.233,8.156c2.772,0 2.039,-2.039 2.039,-2.039" fill="none" stroke="#40396e" stroke-width="3" stroke-linecap="round" stroke-linejoin="round"></path><path d="M54.22,60.666c0,0 -19.788,-2.938 -18.768,5.217" fill="none" stroke="#40396e" stroke-width="3" stroke-linecap="round" stroke-linejoin="round"></path><ellipse cx="23.09315" cy="80.65662" transform="rotate(-32.881)" rx="11.724" ry="8.665" fill="#eb976e" stroke="none" stroke-width="1" stroke-linecap="butt" stroke-linejoin="miter"></ellipse><circle cx="23.878" cy="71.439" r="2.887" fill="#eb976e" stroke="none" stroke-width="1" stroke-linecap="butt" stroke-linejoin="miter"></circle><path d="M22.159,68.037l4.605,6.289l3.385,-3.608l-4.381,-4.33z" fill="#ffc7a3" stroke="none" stroke-width="1" stroke-linecap="butt" stroke-linejoin="miter"></path></g></g></svg>