<svg xmlns="http://www.w3.org/2000/svg" xmlns:xlink="http://www.w3.org/1999/xlink" viewBox="0,0,256,256" width="100px" height="100px" fill-rule="nonzero"><g fill="#339af0" fill-rule="nonzero" stroke="none" stroke-width="1" stroke-linecap="butt" stroke-linejoin="miter" stroke-miterlimit="10" stroke-dasharray="" stroke-dashoffset="0" font-family="none" font-weight="none" font-size="none" text-anchor="none" style="mix-blend-mode: normal"><path d="M0,256v-256h256v256z" id="bgRectangle"></path></g><g fill="none" fill-rule="nonzero" stroke="none" stroke-width="none" stroke-linecap="none" stroke-linejoin="none" stroke-miterlimit="10" stroke-dasharray="" stroke-dashoffset="0" font-family="none" font-weight="none" font-size="none" text-anchor="none" style="mix-blend-mode: normal"><g transform="scale(2.56,2.56)"><path d="M52,100c-14.57,0 -25.922,-10.196 -29.605,-20.268c-0.819,-2.242 -0.958,-8.365 -1.395,-11.732c-4.469,-2.371 -9,-5.217 -9,-14.5c0,-3.18 2.03,-7.74 3,-9.5c-9.103,-3.829 -11,-8.001 -11,-9.5c0,-3.245 2.426,-6.015 5.643,-6.443l9.357,-1.248v-15.309c0,-3.584 2.916,-6.5 6.5,-6.5h53c3.584,0 6.5,2.916 6.5,6.5v15.309l9.359,1.248c3.215,0.428 5.641,3.198 5.641,6.443c0,1.499 -0.563,7.86 -9.666,11.688c0.97,1.76 1.666,4.132 1.666,7.312c0,9.283 -4.052,14.617 -8.521,16.988c-0.437,3.367 -1.056,7.002 -1.874,9.242c-3.682,10.074 -15.035,20.27 -29.605,20.27z" fill="#000000" stroke="none" stroke-width="1" stroke-linecap="butt" stroke-linejoin="miter" opacity="0.35"></path><path d="M50,98c-14.57,0 -25.922,-10.196 -29.605,-20.268c-0.818,-2.243 -1.438,-5.878 -1.874,-9.245c-4.469,-2.37 -8.521,-7.704 -8.521,-16.987c0,-3.18 0.696,-5.551 1.666,-7.312c-9.103,-3.828 -9.666,-10.189 -9.666,-11.688c0,-3.245 2.426,-6.015 5.643,-6.443l9.357,-1.248v-15.309c0,-3.584 2.916,-6.5 6.5,-6.5h53c3.584,0 6.5,2.916 6.5,6.5v15.309l9.359,1.248c3.215,0.428 5.641,3.198 5.641,6.443c0,1.499 -0.563,7.86 -9.666,11.688c0.97,1.76 1.666,4.132 1.666,7.312c0,9.283 -4.052,14.617 -8.521,16.988c-0.437,3.367 -1.056,7.002 -1.874,9.242c-3.682,10.074 -15.035,20.27 -29.605,20.27z" fill="#f2f2f2" stroke="none" stroke-width="1" stroke-linecap="butt" stroke-linejoin="miter"></path><path d="M91.5,32.5l-16,-2l-2,-21h-23.5h-23.5l-2,21l-16,2c0,0 -2.219,5.094 15.5,7.721v5.279c0,0 -7.5,-2 -7.5,6c0,8 4,12 8,12c0,0 0.798,8.713 2,12c2.584,7.069 11.5,16 23.5,16c12,0 20.916,-8.931 23.5,-16c1.202,-3.287 2,-12 2,-12c4,0 8,-4 8,-12c0,-8 -6.5,-6 -6.5,-6v-5.279c17.719,-2.627 14.5,-7.721 14.5,-7.721z" fill="#ffc7a3" stroke="none" stroke-width="1" stroke-linecap="butt" stroke-linejoin="miter"></path><path d="M50,40.25c-27.968,0 -35.877,-2.913 -39,-5.25l-1,-2l10.297,-1c1.459,0 2.675,-1.115 2.801,-2.568l1.777,-18.432h50.25l1.777,18.432c0.126,1.453 1.342,2.568 2.801,2.568l10.297,1l-1,2c-3.123,2.337 -11.032,5.25 -39,5.25z" fill="#707cc0" stroke="none" stroke-width="1" stroke-linecap="butt" stroke-linejoin="miter"></path><rect x="23" y="24" width="54" height="8" fill="#96c362" stroke="none" stroke-width="1" stroke-linecap="butt" stroke-linejoin="miter"></rect><path d="M91.5,32.5l-15,-2v-21h-26.5h-26.5v21l-15,2c0,0 0,6 14,7.721v5.279c0,0 -6,-2 -6,6c0,8 4,12 8,12c0,0 0.798,8.713 2,12c2.584,7.069 11.5,16 23.5,16c12,0 20.916,-8.931 23.5,-16c1.202,-3.287 2,-12 2,-12c4,0 8,-4 8,-12c0,-8 -6,-6 -6,-6v-5.279c14,-1.721 14,-7.721 14,-7.721z" fill="none" stroke="#40396e" stroke-width="3" stroke-linecap="round" stroke-linejoin="round"></path><path d="M31.616,44.93c-1.821,0.246 -3.145,1.815 -3.132,3.653c0.019,2.827 0.672,6.746 3.952,7.917c2.8,1 5.477,0.744 7.465,0c2.792,-1.044 4.769,-4.373 5.391,-8.321c0.238,-1.513 -0.868,-2.901 -2.384,-3.114c-4.951,-0.696 -8.843,-0.467 -11.292,-0.135z" fill="none" stroke="#40396e" stroke-width="3" stroke-linecap="round" stroke-linejoin="round"></path><path d="M68.361,44.93c1.821,0.246 3.145,1.815 3.132,3.653c-0.019,2.827 -0.672,6.746 -3.952,7.917c-2.8,1 -5.477,0.744 -7.465,0c-2.792,-1.044 -4.769,-4.373 -5.391,-8.321c-0.238,-1.513 0.868,-2.901 2.384,-3.114c4.951,-0.696 8.843,-0.467 11.292,-0.135z" fill="none" stroke="#40396e" stroke-width="3" stroke-linecap="round" stroke-linejoin="round"></path><path d="M44.702,51c0,0 2.377,-2.5 5.309,-2.5c2.932,0 5.309,2.5 5.309,2.5" fill="none" stroke="#40396e" stroke-width="3" stroke-linecap="round" stroke-linejoin="round"></path><path d="M50,65c0,0 -13,0 -13,7c0,7 0,16 0,16l13,3.5l13,-3.5c0,0 0,-9 0,-16c0,-7 -13,-7 -13,-7z" fill="#40396e" stroke="none" stroke-width="1" stroke-linecap="butt" stroke-linejoin="miter"></path><path d="M50,62.921c0,0 -10.016,2 -8,2c5,0 4,2 8,2c4,0 3,-2 8,-2c2.016,0 -8,-2 -8,-2z" fill="#ffc7a3" stroke="none" stroke-width="1" stroke-linecap="butt" stroke-linejoin="miter"></path><path d="M56,83h-12c-1.657,0 -3,0.657 -3,-1v-6c0,-1.657 1.343,-3 3,-3h12c1.657,0 3,1.343 3,3v6c0,1.657 -1.343,1 -3,1z" fill="#ffc7a3" stroke="none" stroke-width="1" stroke-linecap="butt" stroke-linejoin="miter"></path><rect x="46" y="79" width="8" height="5" fill="#40396e" stroke="none" stroke-width="1" stroke-linecap="butt" stroke-linejoin="miter"></rect></g></g></svg>