<svg xmlns="http://www.w3.org/2000/svg" xmlns:xlink="http://www.w3.org/1999/xlink" viewBox="0,0,256,256" width="100px" height="100px" fill-rule="nonzero"><g fill="#5c7cfa" fill-rule="nonzero" stroke="none" stroke-width="1" stroke-linecap="butt" stroke-linejoin="miter" stroke-miterlimit="10" stroke-dasharray="" stroke-dashoffset="0" font-family="none" font-weight="none" font-size="none" text-anchor="none" style="mix-blend-mode: normal"><path d="M0,256v-256h256v256z" id="bgRectangle"></path></g><g fill="none" fill-rule="nonzero" stroke="none" stroke-width="none" stroke-linecap="none" stroke-linejoin="none" stroke-miterlimit="10" stroke-dasharray="" stroke-dashoffset="0" font-family="none" font-weight="none" font-size="none" text-anchor="none" style="mix-blend-mode: normal"><g transform="scale(2.56,2.56)"><path d="M40.5,99c-1.916,0 -3.724,-0.839 -4.961,-2.301l-11,-13.001c-0.993,-1.171 -1.539,-2.662 -1.539,-4.198v-9.646l-3.493,-4.192c-0.972,-1.166 -1.507,-2.644 -1.507,-4.162v-17c0,-1.736 0.676,-3.368 1.904,-4.596l1.096,-1.096v-10.308c0,-16.185 16.069,-23.556 31,-23.556c14.931,0 31,7.371 31,23.556v10.308l1.096,1.096c1.228,1.228 1.904,2.86 1.904,4.596v17c0,1.986 -0.89,3.836 -2.44,5.076l-2.56,2.048v10.876c0,1.536 -0.546,3.027 -1.539,4.2l-10.999,12.998c-1.238,1.463 -3.046,2.302 -4.962,2.302z" fill="#000000" stroke="none" stroke-width="1" stroke-linecap="butt" stroke-linejoin="miter" opacity="0.35"></path><path d="M38.5,97c-1.916,0 -3.724,-0.839 -4.961,-2.301l-11,-13.001c-0.993,-1.171 -1.539,-2.662 -1.539,-4.198v-9.646l-3.493,-4.192c-0.972,-1.166 -1.507,-2.644 -1.507,-4.162v-17c0,-1.736 0.676,-3.368 1.904,-4.596l1.096,-1.096v-10.308c0,-16.185 16.069,-23.556 31,-23.556c14.931,0 31,7.371 31,23.556v10.308l1.096,1.096c1.228,1.228 1.904,2.86 1.904,4.596v17c0,1.986 -0.89,3.836 -2.44,5.076l-2.56,2.048v10.876c0,1.536 -0.546,3.027 -1.539,4.2l-10.999,12.998c-1.238,1.463 -3.046,2.302 -4.962,2.302z" fill="#f2f2f2" stroke="none" stroke-width="1" stroke-linecap="butt" stroke-linejoin="miter"></path><path d="M61.5,90.5l11,-13v-14l5,-4v-17l-3,-3c0,0 0,-4 0,-13c0,-14 -17.237,-17.056 -24.5,-17.056c-7.263,0 -24.5,3.056 -24.5,17.056c0,9 0,13 0,13l-3,3v17l5,4v14l11,13z" fill="#ff7575" stroke="none" stroke-width="1" stroke-linecap="butt" stroke-linejoin="miter"></path><path d="M61.5,90.5l11,-13v-14l5,-4v-17l-3,-3c0,0 0,-4 0,-13c0,-14 -17.237,-17.056 -24.5,-17.056c-7.263,0 -24.5,3.056 -24.5,17.056c0,9 0,13 0,13l-3,3v17l5,6v12l11,13z" fill="none" stroke="#40396e" stroke-width="3" stroke-linecap="round" stroke-linejoin="round"></path><path d="M72,57v-12l-3,-2v-22c0,0 -1,-3 -8,-5l-4,12h-14l-4,-12c-7,2 -8,5 -8,5v22l-3,2v12l7,8l0.091,8.212l-2.091,2.788l8,9h3v-3h12v3h3l8,-9l-2,-3v-8z" fill="#ffc571" stroke="none" stroke-width="1" stroke-linecap="butt" stroke-linejoin="miter"></path><path d="M33.028,46.961l11.972,3.039l-1,3c0,0 -6.616,0.045 -9.177,-1.11c-2.982,-1.345 -2.82,-2.877 -2.82,-2.877z" fill="#f2f2f2" stroke="none" stroke-width="1" stroke-linecap="butt" stroke-linejoin="miter"></path><path d="M66.974,46.961l-11.972,3.039l1,3c0,0 6.616,0.045 9.177,-1.11c2.982,-1.345 2.82,-2.877 2.82,-2.877z" fill="#f2f2f2" stroke="none" stroke-width="1" stroke-linecap="butt" stroke-linejoin="miter"></path><path d="M65,73v-4l-4.267,4.146l-1.43,-2.146h-18.259l-1.697,2.226l-4.347,-4.226l0.091,4.212l4.562,4.562l2.876,-3.774h15.168l2.57,3.854z" fill="#40396e" stroke="none" stroke-width="1" stroke-linecap="butt" stroke-linejoin="miter" opacity="0.35"></path></g></g></svg>