<svg xmlns="http://www.w3.org/2000/svg" xmlns:xlink="http://www.w3.org/1999/xlink" viewBox="0,0,256,256" width="100px" height="100px" fill-rule="nonzero"><g fill="#fa5252" fill-rule="nonzero" stroke="none" stroke-width="1" stroke-linecap="butt" stroke-linejoin="miter" stroke-miterlimit="10" stroke-dasharray="" stroke-dashoffset="0" font-family="none" font-weight="none" font-size="none" text-anchor="none" style="mix-blend-mode: normal"><path d="M0,256v-256h256v256z" id="bgRectangle"></path></g><g fill="none" fill-rule="nonzero" stroke="none" stroke-width="none" stroke-linecap="none" stroke-linejoin="none" stroke-miterlimit="10" stroke-dasharray="" stroke-dashoffset="0" font-family="none" font-weight="none" font-size="none" text-anchor="none" style="mix-blend-mode: normal"><g transform="scale(2.56,2.56)"><path d="M42.157,99c-2.805,0 -5.441,-1.093 -7.425,-3.076c-0.243,-0.242 -0.468,-0.507 -0.669,-0.784l-10.417,-14.328c-1.709,-1.923 -2.646,-4.382 -2.646,-6.969v-8.26l-1.242,-1.739c-2.459,-3.445 -3.758,-7.498 -3.758,-11.726v-3.618c0,-4.545 2.202,-8.025 5,-10.142v-5.858c0,-6.187 1.77,-11.579 5.26,-16.03c0.138,-0.18 0.234,-0.305 0.335,-0.426c7.173,-8.759 19.345,-11.1 25.405,-11.1c0.009,0 0.042,0 0.051,0c12.428,0 30.939,7.333 31,27.536c0.008,2.547 0.011,4.457 0.012,5.888c2.791,2.118 4.988,5.596 4.988,10.132v3.618c0,4.228 -1.299,8.281 -3.757,11.725l-1.243,1.74v8.26c0,2.587 -0.937,5.046 -2.646,6.969l-10.426,14.338c-0.193,0.268 -0.419,0.531 -0.661,0.774c-1.984,1.983 -4.621,3.076 -7.424,3.076z" fill="#000000" stroke="none" stroke-width="1" stroke-linecap="butt" stroke-linejoin="miter" opacity="0.35"></path><path d="M40.157,97c-2.805,0 -5.441,-1.093 -7.425,-3.076c-0.243,-0.242 -0.468,-0.507 -0.669,-0.784l-10.417,-14.328c-1.709,-1.923 -2.646,-4.382 -2.646,-6.969v-8.26l-1.242,-1.739c-2.459,-3.445 -3.758,-7.498 -3.758,-11.726v-3.618c0,-4.545 2.202,-8.025 5,-10.142v-5.858c0,-6.187 1.77,-11.579 5.26,-16.03c0.138,-0.18 0.234,-0.305 0.335,-0.426c7.173,-8.759 19.345,-11.1 25.405,-11.1c0.009,0 0.042,0 0.051,0c12.428,0 30.939,7.333 31,27.536c0.008,2.547 0.011,4.457 0.012,5.888c2.791,2.118 4.988,5.596 4.988,10.132v3.618c0,4.228 -1.299,8.281 -3.757,11.725l-1.243,1.74v8.26c0,2.587 -0.937,5.046 -2.646,6.969l-10.426,14.338c-0.193,0.268 -0.419,0.531 -0.661,0.774c-1.984,1.983 -4.621,3.076 -7.424,3.076z" fill="#f2f2f2" stroke="none" stroke-width="1" stroke-linecap="butt" stroke-linejoin="miter"></path><path d="M61.5,90.5l12.5,-17.5l1,-12l4,-6l1,-12l-5.5,-3.5c0,0 0,-4 0,-13c0,-14 -17.237,-17.056 -24.5,-17.056c-7.263,0 -24.5,3.056 -24.5,17.056c0,9 0,13 0,13l-4.5,5.5v10l5,7v12l12.5,16.5z" fill="#ff7575" stroke="none" stroke-width="1" stroke-linecap="butt" stroke-linejoin="miter"></path><path d="M27,62l-6,-7v-12l6,-5z" fill="#dd4f2c" stroke="none" stroke-width="1" stroke-linecap="butt" stroke-linejoin="miter"></path><path d="M73,62l6,-7v-12l-6,-5z" fill="#dd4f2c" stroke="none" stroke-width="1" stroke-linecap="butt" stroke-linejoin="miter"></path><path d="M50,9.444c-7.263,0 -24.5,4.056 -24.5,21.056c0,9 0,10 0,10c-1.657,0 -5,2 -5,6v3.618c0,2.85 0.89,5.628 2.547,7.947l2.453,3.435v10.343c0,1.061 0.421,2.078 1.172,2.828l10.657,14.657c0.75,0.75 1.768,1.172 2.828,1.172h9.843" fill="none" stroke="#40396e" stroke-width="3" stroke-linecap="round" stroke-linejoin="round"></path><path d="M50.051,90.5h9.843c1.061,0 2.078,-0.421 2.828,-1.172l10.657,-14.657c0.75,-0.75 1.172,-1.768 1.172,-2.828v-10.343l2.453,-3.435c1.656,-2.319 2.547,-5.097 2.547,-7.947v-3.618c0,-4 -3.343,-6 -5,-6c0,0 0.027,-1 0,-10c-0.051,-17 -17.237,-21.056 -24.5,-21.056" fill="none" stroke="#40396e" stroke-width="3" stroke-linecap="round" stroke-linejoin="round"></path><path d="M30,48.105c0,-4.06 4.236,-13.464 7.266,-16.377c0.339,-0.326 0.694,-0.65 1.167,-0.528c1.545,0.4 3.506,1.266 5.567,3.607c2.236,4.712 3,15.197 3,19.946c0,1.9 -6.983,14.247 -9,14.247c-1.725,0 -8,-15.197 -8,-20.895z" fill="#40396e" stroke="none" stroke-width="1" stroke-linecap="butt" stroke-linejoin="miter"></path><path d="M70.005,48.105c0,-4.06 -4.236,-13.464 -7.266,-16.377c-0.339,-0.326 -0.694,-0.65 -1.167,-0.528c-1.545,0.4 -3.506,1.266 -5.567,3.607c-2.236,4.712 -3,15.197 -3,19.946c0,1.9 6.983,14.247 9,14.247c1.725,0 8,-15.197 8,-20.895z" fill="#40396e" stroke="none" stroke-width="1" stroke-linecap="butt" stroke-linejoin="miter"></path><path d="M38,11.168c-6.426,2.133 -12.75,6.606 -12.75,15.332c0,9 0,13 0,13l-4.25,5.5v10l4.722,7v12l11.806,16.5h0.472z" fill="#40396e" stroke="none" stroke-width="1" stroke-linecap="butt" stroke-linejoin="miter" opacity="0.35"></path><path d="M62,11.168c6.426,2.133 12.75,6.606 12.75,15.332c0,9 0,13 0,13l4.25,5.5v10l-4.722,7v12l-11.806,16.5h-0.472z" fill="#40396e" stroke="none" stroke-width="1" stroke-linecap="butt" stroke-linejoin="miter" opacity="0.35"></path><path d="M33,49.524c0,0 0.846,1.683 4.231,2.524c2.306,0.573 6.769,0 6.769,0c0,0 -3.384,-5.048 -6.768,-5.048c-2.54,0 -4.232,2.524 -4.232,2.524z" fill="#f2f2f2" stroke="none" stroke-width="1" stroke-linecap="butt" stroke-linejoin="miter"></path><path d="M62.767,47c-3.383,0 -6.767,5.048 -6.767,5.048c0,0 4.462,0.573 6.768,0c3.385,-0.841 4.231,-2.524 4.231,-2.524c0,0 -1.692,-2.524 -4.232,-2.524z" fill="#f2f2f2" stroke="none" stroke-width="1" stroke-linecap="butt" stroke-linejoin="miter"></path></g></g></svg>